<svg xmlns="http://www.w3.org/2000/svg" width="520" height="520" viewBox="0 0 520 520" fill="none">
  <g opacity="0.55" stroke="#f7ead2" stroke-width="1.2">
    <path d="M74 128c18-46 61-68 108-58 34 7 57 30 67 62"/>
    <path d="M246 132c8-42 40-78 92-86 49-7 91 19 108 64"/>
    <path d="M161 247c24-12 51-9 73 4 28 18 42 49 37 79"/>
    <path d="M274 276c14-28 40-48 72-52 41-5 80 16 100 51"/>
    <path d="M95 353c34-14 70-6 95 17 27 25 38 62 29 97"/>
    <path d="M285 356c16-31 47-55 86-59 43-4 84 17 106 55"/>
  </g>
  <g opacity="0.6" fill="#d8b26a">
    <circle cx="74" cy="128" r="6"/>
    <circle cx="161" cy="247" r="6"/>
    <circle cx="95" cy="353" r="6"/>
    <circle cx="446" cy="110" r="6"/>
    <circle cx="446" cy="275" r="6"/>
    <circle cx="477" cy="411" r="6"/>
  </g>
  <g opacity="0.55" stroke="#d8b26a" stroke-width="1">
    <path d="M74 128c9-20 23-35 43-45"/>
    <path d="M74 128c18-7 36-7 54 0"/>
    <path d="M74 128c6 17 6 33 0 50"/>
    <path d="M161 247c18-18 39-26 65-25"/>
    <path d="M161 247c20 2 38 9 53 23"/>
    <path d="M161 247c2 23-4 42-17 60"/>
    <path d="M95 353c20-19 42-27 69-25"/>
    <path d="M95 353c22 3 40 12 55 28"/>
    <path d="M95 353c0 22-8 42-24 60"/>
    <path d="M446 110c-12-20-30-32-53-38"/>
    <path d="M446 110c-20-2-38 2-54 11"/>
    <path d="M446 110c-4 20 0 38 11 56"/>
    <path d="M446 275c-13-22-33-35-60-40"/>
    <path d="M446 275c-23-2-43 3-61 15"/>
    <path d="M446 275c-3 23 2 43 15 63"/>
    <path d="M477 411c-14-24-35-39-63-45"/>
    <path d="M477 411c-24-2-45 4-64 18"/>
    <path d="M477 411c-2 24 4 45 19 66"/>
  </g>
</svg>
